<svg width="256" height="256" viewBox="0 0 256 256" fill="none" xmlns="http://www.w3.org/2000/svg">
<rect width="256" height="256" rx="128" fill="#09090B"/>
<path d="M68.8409 116.227C68.5455 115.023 68.0795 113.966 67.4432 113.057C66.8068 112.125 66.0114 111.341 65.0568 110.705C64.125 110.045 63.0341 109.557 61.7841 109.239C60.5568 108.898 59.2045 108.727 57.7273 108.727C54.5455 108.727 51.8295 109.489 49.5795 111.011C47.3523 112.534 45.6477 114.727 44.4659 117.591C43.3068 120.455 42.7273 123.909 42.7273 127.955C42.7273 132.045 43.2841 135.545 44.3977 138.455C45.5114 141.364 47.1705 143.591 49.375 145.136C51.5795 146.682 54.3182 147.455 57.5909 147.455C60.4773 147.455 62.875 147.034 64.7841 146.193C66.7159 145.352 68.1591 144.159 69.1136 142.614C70.0682 141.068 70.5455 139.25 70.5455 137.159L73.8182 137.5H57.8636V124H88.8182V133.682C88.8182 140.045 87.4659 145.489 84.7614 150.011C82.0795 154.511 78.375 157.966 73.6477 160.375C68.9432 162.761 63.5455 163.955 57.4545 163.955C50.6591 163.955 44.6932 162.511 39.5568 159.625C34.4205 156.739 30.4091 152.625 27.5227 147.284C24.6591 141.943 23.2273 135.591 23.2273 128.227C23.2273 122.455 24.1023 117.341 25.8523 112.886C27.625 108.432 30.0795 104.67 33.2159 101.602C36.3523 98.5114 39.9773 96.1818 44.0909 94.6136C48.2045 93.0227 52.6136 92.2273 57.3182 92.2273C61.4545 92.2273 65.2955 92.8182 68.8409 94C72.4091 95.1591 75.5568 96.8182 78.2841 98.9773C81.0341 101.114 83.25 103.648 84.9318 106.58C86.6136 109.511 87.6364 112.727 88 116.227H68.8409ZM142.997 116.227C142.702 115.023 142.236 113.966 141.599 113.057C140.963 112.125 140.168 111.341 139.213 110.705C138.281 110.045 137.19 109.557 135.94 109.239C134.713 108.898 133.361 108.727 131.884 108.727C128.702 108.727 125.986 109.489 123.736 111.011C121.509 112.534 119.804 114.727 118.622 117.591C117.463 120.455 116.884 123.909 116.884 127.955C116.884 132.045 117.44 135.545 118.554 138.455C119.668 141.364 121.327 143.591 123.531 145.136C125.736 146.682 128.474 147.455 131.747 147.455C134.634 147.455 137.031 147.034 138.94 146.193C140.872 145.352 142.315 144.159 143.27 142.614C144.224 141.068 144.702 139.25 144.702 137.159L147.974 137.5H132.02V124H162.974V133.682C162.974 140.045 161.622 145.489 158.918 150.011C156.236 154.511 152.531 157.966 147.804 160.375C143.099 162.761 137.702 163.955 131.611 163.955C124.815 163.955 118.849 162.511 113.713 159.625C108.577 156.739 104.565 152.625 101.679 147.284C98.8153 141.943 97.3835 135.591 97.3835 128.227C97.3835 122.455 98.2585 117.341 100.009 112.886C101.781 108.432 104.236 104.67 107.372 101.602C110.509 98.5114 114.134 96.1818 118.247 94.6136C122.361 93.0227 126.77 92.2273 131.474 92.2273C135.611 92.2273 139.452 92.8182 142.997 94C146.565 95.1591 149.713 96.8182 152.44 98.9773C155.19 101.114 157.406 103.648 159.088 106.58C160.77 109.511 161.793 112.727 162.156 116.227H142.997ZM198.676 163H171.812V93.1818H198.403C205.585 93.1818 211.79 94.5795 217.017 97.375C222.267 100.148 226.313 104.148 229.153 109.375C232.017 114.58 233.449 120.818 233.449 128.091C233.449 135.364 232.028 141.614 229.188 146.841C226.347 152.045 222.324 156.045 217.119 158.841C211.915 161.614 205.767 163 198.676 163ZM190.767 146.909H197.994C201.449 146.909 204.392 146.352 206.824 145.239C209.278 144.125 211.142 142.205 212.415 139.477C213.71 136.75 214.358 132.955 214.358 128.091C214.358 123.227 213.699 119.432 212.381 116.705C211.085 113.977 209.176 112.057 206.653 110.943C204.153 109.83 201.085 109.273 197.449 109.273H190.767V146.909Z" fill="white"/>
</svg>
